Coordinates
version=1
nRows=11
nColumns=42
inDegrees=yes

Units are S.I. units (second, meters, Newtons, ...)
If the header above contains a line with 'inDegrees', this indicates whether rotational values are in degrees (yes) or radians (no).

endheader
time	pelvis_tilt	pelvis_list	pelvis_rotation	pelvis_tx	pelvis_ty	pelvis_tz	hip_flexion_r	hip_adduction_r	hip_rotation_r	knee_angle_r	knee_adduction_r	knee_angle_r_beta	ankle_angle_r	subtalar_angle_r	mtp_angle_r	hip_flexion_l	hip_adduction_l	hip_rotation_l	knee_angle_l	knee_adduction_l	knee_angle_l_beta	ankle_angle_l	subtalar_angle_l	mtp_angle_l	lumbar_extension	lumbar_bending	lumbar_rotation	arm_flex_r	arm_add_r	arm_rot_r	elbow_flex_r	pro_sup_r	wrist_flex_r	wrist_dev_r	arm_flex_l	arm_add_l	arm_rot_l	elbow_flex_l	pro_sup_l	wrist_flex_l	wrist_dev_l
      1.04000000	     11.26610955	      3.02199313	      8.76078317	     -1.61748852	      0.91244458	      0.00515960	     10.02567460	    -12.25643602	    -27.90824622	     26.75006889	      7.48081328	      0.46687678	     10.11466208	     31.86149621	     -7.88431312	    -17.47606109	      5.57423066	     -4.62764684	     17.75731131	     -3.33420954	      0.30992355	     19.28386484	      3.86478774	     -7.88431312	    -32.43546317	     -6.14863518	    -10.47265085	    -22.87609196	    -12.68939509	     12.41809137	     40.26232629	     90.00000001	      0.00000000	      0.00000000	     31.42980723	    -13.45465190	      4.29505000	     37.86419951	     90.00000001	      0.00000000	      0.00000000
      1.05000000	     11.20083459	      3.13345034	      8.81410217	     -1.60893107	      0.91151443	      0.00512120	      9.70810889	    -12.34401802	    -29.19293122	     24.89788915	      7.85864290	      0.43455014	      9.16682507	     33.14496318	     -7.87976219	    -18.03116797	      5.59328213	     -4.43393882	     17.76982188	     -3.33782729	      0.31014190	     19.28234225	      3.80963727	     -7.87976219	    -32.23020510	     -6.19440197	    -10.46111580	    -23.10119822	    -12.64634713	     12.21614374	     40.15357851	     90.00000001	      0.00000000	      0.00000000	     31.55161027	    -13.35425830	      4.59428823	     37.43130970	     90.00000001	      0.00000000	      0.00000000
      1.06000000	     11.23351327	      3.14119363	      8.83616898	     -1.60012299	      0.91080995	      0.00537587	      9.25427331	    -12.23047897	    -30.59088048	     23.16012127	      8.08856482	      0.40422037	      8.12851879	     34.32066256	     -7.87506504	    -18.74258375	      5.43958843	     -4.31149582	     17.67191347	     -3.26779190	      0.30843308	     19.23740530	      3.74520857	     -7.87506504	    -32.09565281	     -6.13839899	    -10.36223114	    -23.26897550	    -12.56039324	     11.95433261	     40.06079263	     90.00000001	      0.00000000	      0.00000000	     31.60541215	    -13.27776206	      4.88859658	     37.05721050	     90.00000001	      0.00000000	      0.00000000
      1.07000000	     11.23473434	      3.15213754	      8.86430016	     -1.59125096	      0.91009701	      0.00556832	      8.81734266	    -12.13721657	    -31.83228808	     21.63594697	      8.35103818	      0.37761851	      7.22381369	     35.19867347	     -7.87058299	    -19.42377444	      5.31599466	     -4.20857827	     17.56224419	     -3.25591241	      0.30651899	     19.16932090	      3.73211382	     -7.87058299	    -31.92620318	     -6.06128008	    -10.27143788	    -23.35254148	    -12.50383323	     11.71759726	     39.92189536	     90.00000001	      0.00000000	      0.00000000	     31.60259459	    -13.20337677	      5.14187401	     36.68677412	     90.00000001	      0.00000000	      0.00000000
      1.08000000	     11.03595050	      3.27402473	      8.63454448	     -1.58235401	      0.90894980	      0.00618565	      8.88582827	    -12.26189736	    -32.63897376	     21.00118884	      8.60146527	      0.36653989	      7.19018303	     35.24798305	     -7.87031411	    -19.87163409	      5.42021926	     -4.33080242	     17.52689832	     -3.24007953	      0.30590208	     19.21209983	      3.69161163	     -7.87031411	    -31.55182874	     -6.24045232	    -10.05186466	    -23.38438402	    -12.50645220	     11.69410087	     39.85024201	     90.00000001	      0.00000000	      0.00000000	     31.44395044	    -13.16187725	      5.19100207	     36.54313837	     90.00000001	      0.00000000	      0.00000000
      1.09000000	     11.18753622	      3.13837983	      8.92846518	     -1.57316603	      0.90878738	      0.00611232	      7.99138335	    -11.96878542	    -33.84525707	     19.39116749	      8.93342301	      0.33843972	      5.77795487	     36.33849515	     -7.86859275	    -20.70731060	      5.04309581	     -4.04131420	     17.39939066	     -3.31822539	      0.30367665	     18.90430769	      3.77774999	     -7.86859275	    -31.52397690	     -5.85237755	    -10.09651010	    -23.23235998	    -12.39333736	     11.44731622	     39.45235544	     90.00000001	      0.00000000	      0.00000000	     31.44771722	    -13.08996694	      5.46179675	     35.91383933	     90.00000001	      0.00000000	      0.00000000
      1.10000000	     11.38404332	      2.89707614	      8.90053973	     -1.56372852	      0.90862791	      0.00689497	      7.31199653	    -11.44783439	    -34.45846114	     18.37931818	      9.09750814	      0.32077962	      4.80714578	     36.46475100	     -7.86239955	    -21.59031345	      4.49038050	     -3.98053621	     17.30161458	     -3.03255753	      0.30197014	     18.73341228	      3.67524610	     -7.86239955	    -31.49695488	     -5.51035151	     -9.80314362	    -23.08230889	    -12.31843616	     11.11562921	     39.23422327	     90.00000001	      0.00000000	      0.00000000	     31.25133387	    -13.04898615	      5.60417852	     35.73724573	     90.00000001	      0.00000000	      0.00000000
      1.11000000	     11.48765136	      2.72713329	      8.89945648	     -1.55425898	      0.90842280	      0.00752815	      6.77079338	    -11.07084061	    -34.65440811	     17.71890361	      9.27710788	      0.30925321	      4.25231309	     36.33293316	     -7.85331177	    -22.31124151	      4.08510820	     -3.85482053	     17.33633224	     -2.89225178	      0.30257608	     18.47302731	      3.51539813	     -7.85331177	    -31.39166656	     -5.21726944	     -9.59546610	    -22.83457364	    -12.25907793	     10.90425285	     38.95018299	     90.00000001	      0.00000000	      0.00000000	     30.98486844	    -13.02051978	      5.66985032	     35.52761560	     90.00000001	      0.00000000	      0.00000000
      1.12000000	     11.36236717	      2.74830490	      8.80646909	     -1.54489457	      0.90785857	      0.00813302	      6.69714658	    -11.03505240	    -34.52651005	     17.78208031	      9.31078524	      0.31035585	      4.20776383	     36.15071104	     -7.85210813	    -22.68572666	      4.02766450	     -3.75557109	     17.60059226	     -2.93056888	      0.30718829	     18.36705530	      3.55320479	     -7.85210813	    -31.08684500	     -5.16466321	     -9.42787135	    -22.60383875	    -12.26404366	     10.88347701	     38.95701383	     90.00000001	      0.00000000	      0.00000000	     30.60708043	    -13.01741532	      5.67339059	     35.41446006	     90.00000001	      0.00000000	      0.00000000
      1.13000000	     11.65965324	      2.53677432	      8.81078236	     -1.53509223	      0.90818304	      0.00887132	      6.06616708	    -10.66321662	    -34.33009043	     17.94976601	      9.39918743	      0.31328252	      3.94704571	     36.03175546	     -7.84931363	    -23.43108605	      3.47716497	     -3.76515627	     18.02846937	     -2.74353483	      0.31465615	     17.83873714	      3.41415419	     -7.84931363	    -31.17944879	     -4.77736779	     -9.22353614	    -22.11482215	    -12.23589566	     10.86397938	     38.37814095	     90.00000001	      0.00000000	      0.00000000	     30.26225931	    -13.02772252	      5.63676343	     35.24608232	     90.00000001	      0.00000000	      0.00000000
      1.14000000	     12.09510455	      2.10271626	      8.85659599	     -1.52498416	      0.90905504	      0.01000309	      5.09169423	     -9.72492161	    -33.38817353	     17.39796298	      9.39268195	      0.30365174	      3.41431651	     35.16159886	     -7.83331192	    -24.32149037	      2.57462663	     -3.47876388	     18.41427586	     -2.33130996	      0.32138974	     17.02505406	      2.62580983	     -7.83331192	    -31.37651740	     -4.16739815	     -8.92053084	    -21.56212008	    -12.12666901	     10.57020253	     37.87635440	     90.00000001	      0.00000000	      0.00000000	     29.78951790	    -12.99941810	      5.32741747	     35.21598060	     90.00000001	      0.00000000	      0.00000000
